<svg width="80" height="80" fill="none" xmlns="http://www.w3.org/2000/svg"><path fill-rule="evenodd" clip-rule="evenodd" d="M11.02 36.5H71.97c0-.29.03-.58.05-.88.03-.32.05-.66.05-1.02v-1.2C71.37 17.7 57.34 5 40.1 5 22.75 5 8.71 17.7 8.01 33.5v1.2c0 .6 0 1.3.1 1.9h2.91v-.1ZM40.09 8c15.64 0 28.47 11.3 29.08 25.5H11.02C11.62 19.4 24.45 8 40.09 8ZM24.05 47.5l-5.41-4.1-5.31 4.1-6.22-4.7 1.7-2.5 4.52 3.4 5.3-4.1 5.42 4.1 5.32-4.1 5.3 4.1L40 39.6l5.42 4.1 5.31-4.1 5.31 4.1 5.42-4.1 5.31 4.1 4.51-3.4 1.7 2.5-6.21 4.7-5.31-4.1-5.42 4.1-5.31-4.1-5.31 4.1-5.42-4.1-5.31 4.1-5.31-4.1-5.32 4.1Zm38.4 4.2h10.63a4 4 0 0 1 3.9 4.3v3.5c0 2.4-1.8 4.3-4.1 4.3h-.9v1.1c0 5.6-4.32 10.1-9.63 10.1H17.64C12.32 75 8 70.4 8 64.9v-1.1h-.9C4.91 63.8 3 61.9 3 59.5V56c0-2.4 1.8-4.3 4.11-4.3h55.33Zm0 20.2c3.7 0 6.72-3.1 6.72-7v-1.1H10.92v1.1c0 3.8 3 7 6.72 7h44.8Zm10.63-11.1c.6 0 1.2-.6 1.2-1.3 0 0 0-3.5-.1-3.5 0-.7-.5-1.3-1.2-1.3H7c-.6 0-1.2.6-1.2 1.3v3.5c0 .7.5 1.3 1.2 1.3h66.06ZM42 20.3c0 1.1-.86 2-1.9 2-1.06 0-1.91-.9-1.91-2s.85-2 1.9-2c1.05 0 1.9.9 1.9 2Zm-9.73-3.1c1.06 0 1.9-.9 1.9-2s-.84-2-1.9-2c-1.05 0-1.9.9-1.9 2s.85 2 1.9 2Zm17.45-2c0 1.1-.86 2-1.9 2-1.06 0-1.91-.9-1.91-2s.85-2 1.9-2c1.05 0 1.9.9 1.9 2Z" fill="#81B3D2"/></svg>