<svg width="80" height="80" fill="none" xmlns="http://www.w3.org/2000/svg"><path fill-rule="evenodd" clip-rule="evenodd" d="M75.86 43.3 78 41.2l-10.07-9.9V4H53.79v13.6L39.95 4 2 41.2l2.14 2.1 7.93-7.8v37.6H8V76h65.01v-2.9h-5.18V35.5l8.03 7.8ZM15.02 73.1V32.5L39.95 8.1l24.93 24.4v40.6H15.02Zm49.86-44.7-8.04-7.9V6.9h8.04v21.5ZM32 69H48.3V45.2H32.01V69Zm2.95-20.9h10.28v18H34.96v-18Zm5.1-9.3a7.77 7.77 0 0 1-7.84-7.7c0-4.3 3.56-7.7 7.83-7.7A7.8 7.8 0 0 1 48 31.1c0 4.2-3.56 7.7-7.94 7.7Zm5.18-7.8c0-2.7-2.34-4.9-5.09-4.9a4.98 4.98 0 0 0-5.08 4.9c0 2.7 2.34 4.9 5.08 4.9 2.85 0 5.09-2.2 5.09-4.9Zm-23 14.2H19.2v3.9h3.06v-3.9Zm2.96 0h3.05v3.9H25.2v-3.9Zm-2.95 6h-3.06v3.9h3.06v-3.9Zm2.95 0h3.05v3.9H25.2v-3.9Zm29.5-6h-3.05v3.9h3.05v-3.9Zm2.95 0h3.05v3.9h-3.05v-3.9Zm-2.95 6h-3.05v3.9h3.05v-3.9Zm2.95 0h3.05v3.9h-3.05v-3.9Z" fill="#81B3D2"/></svg>